<svg width="304" height="210" version="1.1" xmlns="http://www.w3.org/2000/svg" desc="Created with imagetracer.js version 1.2.6" ><path fill="rgb(0,0,0)" stroke="rgb(0,0,0)" stroke-width="1" opacity="0" d="M 0 0 L 304 0 L 304 210 L 255.5 210 L 235 193.5 L 237 185.5 L 246 167.5 L 248 151.5 L 246 141.5 L 243 135.5 L 247.5 135 L 260 140 Q 261.4 128.5 256 122.5 L 245.5 111 L 232 103.5 L 241 95.5 Q 249 87.5 249 71.5 L 248 69 L 234.5 74 L 216.5 74 L 187 64.5 L 195 53.5 Q 197.6 47.6 196 37.5 L 189.5 28 L 187.5 28 L 175.5 39 L 167.5 43 L 155.5 47 L 128.5 51 L 106.5 58 Q 92.3 64.8 83 76.5 L 75.5 91 Q 73.7 88.3 67.5 90 Q 51.4 92.9 44 104.5 L 38 115.5 L 37 123 L 51.5 118 L 52 120.5 L 48 127.5 L 44 141.5 L 43 159.5 L 44 160.5 L 45 173.5 L 51 193.5 L 35.5 203 L 28.5 210 L 0 210 L 0 0 Z " /><path fill="rgb(67,57,120)" stroke="rgb(67,57,120)" stroke-width="1" opacity="0.7058823529411765" d="M 187.5 28 L 179.5 37 L 187.5 28 Z " /><path fill="rgb(67,57,120)" stroke="rgb(67,57,120)" stroke-width="1" opacity="0.7058823529411765" d="M 92.5 67 L 85.5 75 L 92.5 67 Z " /><path fill="rgb(67,57,120)" stroke="rgb(67,57,120)" stroke-width="1" opacity="0.7058823529411765" d="M 236.5 73 L 239 73.5 Q 233.4 77.4 222.5 76 L 218 74.5 L 235.5 74 L 236.5 73 Z " /><path fill="rgb(67,57,120)" stroke="rgb(67,57,120)" stroke-width="1" opacity="0.7058823529411765" d="M 245.5 87 L 245 88.5 L 241.5 94 L 243 91.5 L 245.5 87 Z " /><path fill="rgb(67,57,120)" stroke="rgb(67,57,120)" stroke-width="1" opacity="0.7058823529411765" d="M 54.5 95 L 53.5 97 L 45.5 104 L 52.5 96 L 54.5 95 Z " /><path fill="rgb(67,57,120)" stroke="rgb(67,57,120)" stroke-width="1" opacity="0.7058823529411765" d="M 240.5 95 L 235.5 101 L 240.5 95 Z " /><path fill="rgb(67,57,120)" stroke="rgb(67,57,120)" stroke-width="1" opacity="0.7058823529411765" d="M 42.5 108 L 42 109.5 L 39.5 115 L 39 113.5 L 42.5 108 Z " /><path fill="rgb(67,57,120)" stroke="rgb(67,57,120)" stroke-width="1" opacity="0.7058823529411765" d="M 246.5 112 L 252.5 119 L 246.5 112 Z " /><path fill="rgb(67,57,120)" stroke="rgb(67,57,120)" stroke-width="1" opacity="0.7058823529411765" d="M 140.5 156 L 144.5 161 L 140.5 156 Z " /><path fill="rgb(67,57,120)" stroke="rgb(67,57,120)" stroke-width="1" opacity="0.7058823529411765" d="M 51.5 191 L 52 193.5 L 47.5 197 L 48.5 195 L 51 193.5 L 51.5 191 Z " /><path fill="rgb(67,57,120)" stroke="rgb(67,57,120)" stroke-width="1" opacity="0.7058823529411765" d="M 34.5 204 L 29.5 210 L 34.5 204 Z " /><path fill="rgb(33,21,76)" stroke="rgb(33,21,76)" stroke-width="1" opacity="1" d="M 188.5 28 Q 196.7 32.8 196 46.5 Q 193.8 57.8 186.5 64 Q 183.9 63.3 185 66 L 193.5 67 L 209.5 73 L 222.5 76 L 232.5 76 L 237.5 75 L 245.5 70 L 248 70 Q 249.1 79.9 246 86.5 Q 241.8 95.3 234.5 101 L 230 103.5 L 244.5 111 L 253 119.5 L 259 130.5 L 260 139 L 250.5 135 L 242 134 L 247 148.5 L 247 160.5 L 245 169.5 L 237 183.5 L 235 194.5 L 254 209.5 L 30.5 210 L 35.5 204 L 52 193.5 L 45 170.5 Q 46.3 165.7 44 164.5 L 44 146.5 L 47 132.5 L 53 118 L 47.5 118 L 38 122 Q 40.8 105.5 52.5 97 Q 59.5 90 74.5 91 Q 75.8 93.3 77 90.5 Q 81.9 75.4 93.5 67 Q 104.4 58.4 119.5 54 L 131.5 51 L 153.5 48 L 171.5 42 Q 181.8 36.8 188.5 28 Z M 135 155 L 128 158 L 124 167 L 124 183 L 127 190 L 133 194 L 140 194 L 143 192 L 148 181 Q 150 167 145 161 Q 143 155 135 155 Z M 188 156 L 182 164 L 180 174 Q 182 177 181 184 L 185 191 L 190 194 Q 194 195 196 192 L 201 183 L 201 167 L 196 157 Q 194 155 188 156 Z " /><path fill="rgb(237,236,242)" stroke="rgb(237,236,242)" stroke-width="1" opacity="0.9333333333333333" d="M 132.5 156 L 139.5 156 L 145 161.5 L 148 169.5 L 148 177.5 L 145 188.5 L 140.5 193 L 134.5 194 L 127 188.5 Q 122.4 181.6 124 168.5 L 127 160.5 L 130.5 157 L 132.5 156 Z " /><path fill="rgb(237,236,242)" stroke="rgb(237,236,242)" stroke-width="1" opacity="0.9333333333333333" d="M 189.5 156 L 193.5 156 L 198 160.5 Q 202.5 167 201 179.5 L 198 188.5 L 193.5 193 L 188.5 193 L 184 188.5 L 181 179.5 L 181 168.5 Q 182.2 160.7 187.5 157 L 189.5 156 Z " /><path fill="rgb(237,236,242)" stroke="rgb(237,236,242)" stroke-width="1" opacity="0.9333333333333333" d="M 250.5 205 L 254.5 210 L 250.5 205 Z " /></svg>